<svg width="24" height="25" viewBox="0 0 24 25" fill="none" xmlns="http://www.w3.org/2000/svg">
<path d="M12 2.5C10.6868 2.5 9.38642 2.75866 8.17317 3.2612C6.95991 3.76375 5.85752 4.50035 4.92893 5.42893C3.05357 7.3043 2 9.84784 2 12.5C2 15.1522 3.05357 17.6957 4.92893 19.5711C5.85752 20.4997 6.95991 21.2362 8.17317 21.7388C9.38642 22.2413 10.6868 22.5 12 22.5C14.6522 22.5 17.1957 21.4464 19.0711 19.5711C20.9464 17.6957 22 15.1522 22 12.5C22 11.34 21.79 10.19 21.39 9.11L19.79 10.71C19.93 11.3 20 11.9 20 12.5C20 14.6217 19.1571 16.6566 17.6569 18.1569C16.1566 19.6571 14.1217 20.5 12 20.5C9.87827 20.5 7.84344 19.6571 6.34315 18.1569C4.84285 16.6566 4 14.6217 4 12.5C4 10.3783 4.84285 8.34344 6.34315 6.84315C7.84344 5.34285 9.87827 4.5 12 4.5C12.6 4.5 13.2 4.57 13.79 4.71L15.4 3.1C14.31 2.71 13.16 2.5 12 2.5ZM19 2.5L15 6.5V8L12.45 10.55C12.3 10.5 12.15 10.5 12 10.5C11.4696 10.5 10.9609 10.7107 10.5858 11.0858C10.2107 11.4609 10 11.9696 10 12.5C10 13.0304 10.2107 13.5391 10.5858 13.9142C10.9609 14.2893 11.4696 14.5 12 14.5C12.5304 14.5 13.0391 14.2893 13.4142 13.9142C13.7893 13.5391 14 13.0304 14 12.5C14 12.35 14 12.2 13.95 12.05L16.5 9.5H18L22 5.5H19V2.5ZM12 6.5C10.4087 6.5 8.88258 7.13214 7.75736 8.25736C6.63214 9.38258 6 10.9087 6 12.5C6 14.0913 6.63214 15.6174 7.75736 16.7426C8.88258 17.8679 10.4087 18.5 12 18.5C13.5913 18.5 15.1174 17.8679 16.2426 16.7426C17.3679 15.6174 18 14.0913 18 12.5H16C16 13.5609 15.5786 14.5783 14.8284 15.3284C14.0783 16.0786 13.0609 16.5 12 16.5C10.9391 16.5 9.92172 16.0786 9.17157 15.3284C8.42143 14.5783 8 13.5609 8 12.5C8 11.4391 8.42143 10.4217 9.17157 9.67157C9.92172 8.92143 10.9391 8.5 12 8.5V6.5Z" fill="#E4E7F0"/>
</svg>
