<svg width="28" height="29" viewBox="0 0 28 29" fill="none" xmlns="http://www.w3.org/2000/svg">
<path d="M14.0026 7.33398C14.8867 7.33398 15.7345 7.68517 16.3596 8.31029C16.9847 8.93542 17.3359 9.78326 17.3359 10.6673C17.3359 11.5514 16.9847 12.3992 16.3596 13.0243C15.7345 13.6495 14.8867 14.0007 14.0026 14.0007C13.1185 14.0007 12.2707 13.6495 11.6456 13.0243C11.0205 12.3992 10.6693 11.5514 10.6693 10.6673C10.6693 9.78326 11.0205 8.93542 11.6456 8.31029C12.2707 7.68517 13.1185 7.33398 14.0026 7.33398ZM14.0026 15.6673C17.6859 15.6673 20.6693 17.159 20.6693 19.0007V20.6673H7.33594V19.0007C7.33594 17.159 10.3193 15.6673 14.0026 15.6673Z" fill="#E4E7F0"/>
<rect x="0.5" y="1" width="27" height="27" rx="13.5" stroke="#E4E7F0"/>
</svg>
